<?xml version="1.0" encoding="iso-8859-1"?>
<!-- Generator: Adobe Illustrator 21.0.1, SVG Export Plug-In . SVG Version: 6.00 Build 0)  -->
<svg version="1.1" id="Layer_1" xmlns="http://www.w3.org/2000/svg" xmlns:xlink="http://www.w3.org/1999/xlink" x="0px" y="0px"
	 viewBox="0 0 105 105" style="enable-background:new 0 0 105 105;" xml:space="preserve">
<g>
	<linearGradient id="SVGID_1_" gradientUnits="userSpaceOnUse" x1="52.5639" y1="102.6064" x2="52.5639" y2="2.6064">
		<stop  offset="9.914436e-08" style="stop-color:#FBB251"/>
		<stop  offset="1" style="stop-color:#FBA33A"/>
	</linearGradient>
	<circle style="fill:url(#SVGID_1_);" cx="52.564" cy="52.606" r="50"/>
	<path style="fill:#FFFFFF;" d="M72.406,27.174c-3.333,0-6.044,2.711-6.044,6.044c0,1.043,0.265,2.024,0.731,2.881l-9.9,9.9
		c-1.365-1.063-3.073-1.701-4.933-1.701s-3.568,0.639-4.934,1.7l-7.725-7.725c0.355-0.599,0.571-1.288,0.571-2.034
		c0-2.222-1.807-4.029-4.029-4.029s-4.029,1.807-4.029,4.029c0,2.222,1.807,4.029,4.029,4.029c0.745,0,1.434-0.217,2.034-0.571
		l7.725,7.725c-1.062,1.366-1.7,3.074-1.7,4.934c0,1.859,0.639,3.568,1.7,4.933L33.147,70.045c-1.074-0.974-2.493-1.573-4.053-1.573
		c-3.333,0-6.044,2.711-6.044,6.044s2.711,6.044,6.044,6.044s6.044-2.711,6.044-6.044c0-1.043-0.265-2.024-0.731-2.881
		l12.922-12.922c1.114,0.866,2.458,1.446,3.926,1.631v10.234c-2.854,0.481-5.036,2.963-5.036,5.953c0,3.333,2.711,6.044,6.044,6.044
		c3.333,0,6.044-2.711,6.044-6.044c0-2.989-2.183-5.47-5.036-5.953V60.343c1.469-0.184,2.812-0.765,3.926-1.631l7.725,7.725
		c-0.356,0.6-0.572,1.289-0.572,2.035c0,2.222,1.807,4.029,4.029,4.029c2.222,0,4.029-1.807,4.029-4.029
		c0-2.222-1.807-4.029-4.029-4.029c-0.745,0-1.434,0.217-2.034,0.571l-7.725-7.725c1.062-1.366,1.7-3.074,1.7-4.934
		c0-1.859-0.639-3.568-1.7-4.933l9.735-9.735c1.073,0.974,2.492,1.573,4.052,1.573c3.333,0,6.044-2.711,6.044-6.044
		S75.739,27.174,72.406,27.174z"/>
</g>
</svg>
