<?xml version="1.0" encoding="utf-8"?>
<!-- Generator: Adobe Illustrator 21.0.1, SVG Export Plug-In . SVG Version: 6.00 Build 0)  -->
<svg version="1.1" id="Layer_1" xmlns="http://www.w3.org/2000/svg" xmlns:xlink="http://www.w3.org/1999/xlink" x="0px" y="0px"
	 viewBox="0 0 354 90.6" style="enable-background:new 0 0 354 90.6;" xml:space="preserve">
<style type="text/css">
	.st0{fill:#134784;}
	.st1{fill:#F79B0E;}
	.st2{fill:#FEFEFE;}
	.st3{fill:#ED9813;}
	.st4{fill:#144784;}
	.st5{fill:#E0931A;}
	.st6{fill:#D68F1F;}
</style>
<g>
	<path class="st0" d="M346.7,90.6c-113.2,0-226.3,0-339.5,0c-2.4-0.4-4.3-1.5-5.8-3.5c-1-1.4-1-3-1.5-4.5C0,57.7,0,32.8,0,8
		c0.5-2,0.9-4,2.6-5.6C4.1,0.9,6,0.5,8,0c112.7,0,225.4,0,338.1,0c2.8,0.3,5.1,1.3,6.8,3.7c0.8,1.1,0.7,2.4,1.2,3.5
		c0,25.5,0,50.9,0,76.4c-0.6,1.3-0.6,2.8-1.7,4C350.8,89.4,348.9,90.2,346.7,90.6z"/>
	<path class="st1" d="M64.8,32.7c0.7-2.2,1.7-2.9,3.6-2.6c1.5,0.2,2.4,1.4,2.5,3.4c0,7.7,0,15.4,0,23.2c0,0.5,0,0.9,0,1.4
		c0,1,0.1,1.9,1.2,2.2c1.1,0.3,1.7-0.4,2.2-1.2c1.8-2.5,2.8-5.4,3.4-8.4c1.4-7.7,0.5-14.8-5-20.8C62.7,19,43.8,18.5,34.4,29.1
		c-6.4,7.2-8.3,15.6-5.1,24.8c3.1,9,10.1,13.7,19.2,15.4c4.1,0.8,8.1,0.5,12.1-1c2.2-0.8,3.8-0.2,4.5,1.5c0.8,1.7,0.1,3.6-1.8,4.7
		c-2.3,1.3-4.9,1.7-7.5,1.8c-11.9,0.6-22.2-2.9-29.5-12.8C15.8,49.1,18.9,23.6,43.1,16c12.4-3.9,23.9-1.3,33.4,7.8
		c7,6.6,9.2,15.2,8.7,24.6c-0.4,5.8-2.1,11.1-6,15.5c-1.4,1.6-2.9,3-5,3.5c-4.6,1.1-8.9-2-9.4-6.7c0-0.5,0.1-1-0.4-1.6
		c-4.3,3.9-9.4,5.6-15.2,4.8c-4.6-0.7-8.4-3.1-11.4-6.6c-6-7.2-5.6-17.1,0.9-24C44.3,27.2,54.7,23.9,64.8,32.7z"/>
	<path class="st2" d="M93.7,46.9c0-5.3,0-10.6,0-15.9c0-1.1,0.1-2.1,0.7-3c1.5-2.3,4.4-2.4,5.9-0.1c0.5,0.7,0.7,1,1.6,0.4
		c5.4-3.3,11.4-2.7,16.1,1.5c1,0.9,1.6,0.9,2.5,0.1c0.7-0.6,1.5-1.1,2.3-1.6c9.9-6.2,20.6,2.7,20.2,11.4c-0.4,7.9-0.1,15.8-0.1,23.7
		c0,2-1,3.3-2.6,3.8c-1.7,0.6-3.7-0.1-4.8-1.5c-0.7-0.9-0.7-2-0.7-3.1c0-7.3,0-14.6,0-21.9c0-0.8,0-1.6-0.1-2.4
		c-0.5-3.2-3.2-5-6.4-4.3c-1.4,0.3-2.6,0.9-3.7,1.7c-1.4,1-2.1,2.3-2.1,4.1c0.1,7.8,0,15.5,0,23.3c0,1.7-0.6,3-2.2,3.8
		c-1.6,0.8-3.1,0.6-4.5-0.5c-1.2-0.9-1.5-2.1-1.5-3.5c0-7.6,0-15.2,0-22.8c0-3.4-1.6-5.8-4.1-6.4c-2.5-0.5-6.8,1.5-8,3.8
		c-0.4,0.7-0.3,1.4-0.3,2.2c0,7.8,0,15.7,0,23.5c0,2-1.1,3.5-2.7,3.9c-1.8,0.5-3.7-0.2-4.7-1.7c-0.5-0.8-0.6-1.7-0.6-2.7
		C93.7,57.6,93.7,52.3,93.7,46.9C93.7,46.9,93.7,46.9,93.7,46.9z"/>
	<path class="st2" d="M180.5,30.9c0-0.4,0.1-0.7,0.1-1c0.3-2.2,1.9-3.6,3.9-3.6c2.1,0.1,3.9,1.8,3.9,4c0,4.9,0,9.8,0,14.7
		c0,6.2,0,12.3,0,18.5c0,2-1.1,3.4-2.8,3.9c-1.7,0.5-3.5-0.1-4.4-1.5c-0.6-0.8-0.7-1.8-0.8-2.8c-11.7,8.3-22.9,3.9-28.8-3.3
		c-6.4-7.7-6.3-18.5,0.2-26.2C159.1,25.2,169,24.2,180.5,30.9z"/>
	<path class="st1" d="M277.5,39.6c0-2.8,0-5.6,0-8.5c0-3,1.4-4.8,3.7-4.8c2.5-0.1,4,1.7,4,4.7c0,5.2,0,10.5,0,15.7
		c0.1,6.6,5.1,12.3,11.4,13c6.5,0.8,12.5-3.3,14.3-9.6c0.4-1.3,0.5-2.7,0.5-4.1c0-5.3,0-10.6,0-15.9c0-2.1,1.4-3.5,3.3-3.8
		c1.8-0.3,3.5,0.8,4.1,2.4c0.2,0.6,0.2,1.2,0.2,1.9c0,5.4,0,10.8,0,16.2c-0.1,8.3-5.5,16.1-13.4,19.2c-7.7,3.1-16.3,1.1-22.2-5
		c-4-4.1-6.1-9-6-14.8C277.5,44.1,277.5,41.8,277.5,39.6z"/>
	<path class="st2" d="M208.1,34.7c0-5.4,0-10.8,0-16.2c0-1.6,0.7-2.9,2.2-3.6c1.5-0.7,3-0.6,4.4,0.5c1.3,0.9,1.4,2.3,1.4,3.7
		c0,10.1,0,20.3,0,30.4c0,5.1,2.7,8.7,7.2,9.9c0.9,0.2,1.8,0.2,2.7,0.4c2.3,0.3,3.7,1.9,3.6,4.1c-0.1,2.3-1.8,3.9-4.2,3.8
		c-4.2-0.1-8-1.5-11.2-4.3c-4-3.5-6-8-6.1-13.4C208.1,44.8,208.1,39.8,208.1,34.7z"/>
	<path class="st1" d="M248.3,54.1c0.2-3.5-0.4-7.7,0.6-11.8c2.1-8.5,10.1-15.3,18.8-16c0.4,0,0.8,0,1.2,0c2.4,0.1,3.9,1.5,4,3.6
		c0.1,2.2-1.4,3.8-3.8,4c-6.5,0.5-11.1,4.2-12.7,10.1c-0.3,1.2-0.4,2.5-0.4,3.8c0,5.1,0,10.1,0,15.2c0,1.1-0.1,2.2-0.8,3.1
		c-1,1.2-2.9,1.8-4.4,1.3c-1.7-0.6-2.5-2-2.5-3.7C248.3,60.7,248.3,57.8,248.3,54.1z"/>
	<path class="st2" d="M202.4,47.1c0,5.3,0,10.6,0,15.9c0,2.4-1,3.9-2.9,4.4c-2.8,0.7-5.1-1-5.1-4.1c0-4,0-7.9,0-11.9
		c0-6.6,0-13.1,0-19.7c0-0.6,0-1.2,0.1-1.7c0.3-2.1,2-3.7,4-3.6c1.9,0.1,3.8,1.7,3.9,3.7c0.1,1.7,0.1,3.3,0.1,5
		C202.4,39,202.4,43.1,202.4,47.1C202.4,47.1,202.4,47.1,202.4,47.1z"/>
	<path class="st1" d="M242.7,63.2c0,2.9-1.3,4.4-4,4.4c-2.7,0-4-1.6-4-4.8c0-3,1.3-4.4,4-4.4C241.6,58.4,242.7,59.8,242.7,63.2z"/>
	<path class="st2" d="M202.3,19c0,3-1.3,4.3-4.1,4.2c-2.5,0-3.9-1.5-3.9-4.2c0-2.9,1.4-4.5,3.9-4.6C201,14.4,202.3,15.9,202.3,19z"
		/>
	<path class="st3" d="M328.4,20.1c2.8,0,5.2,2.4,5.2,5.1c0,2.8-2.3,5.2-5.1,5.2c-2.8,0-5.2-2.3-5.2-5.1
		C323.2,22.6,325.6,20.1,328.4,20.1z"/>
	<path class="st0" d="M40.4,46c0-7.4,4.8-12.4,11.7-12.3c7.1,0.1,12.1,5.1,12.1,12.3c0,7-5.4,12.2-12.5,12.1
		C44.9,58,40.4,53.1,40.4,46z"/>
	<path class="st0" d="M167.5,59.9c-7.2,0-13-5.9-13-13.1c0.1-7.1,6-12.9,13.1-12.9c7.1,0,12.9,5.8,13,13
		C180.6,54.1,174.8,59.9,167.5,59.9z"/>
	<path class="st4" d="M332.8,25.3c0,2.4-2.1,4.4-4.5,4.3c-2.4-0.1-4.4-2.1-4.3-4.5c0.1-2.4,2-4.2,4.4-4.2
		C330.9,20.9,332.9,22.9,332.8,25.3z"/>
	<path class="st5" d="M329,25.6c-1-0.1-1.9,0-1.6,1.4c0,0.3,0,0.6-0.4,0.6c-0.5,0-0.5-0.3-0.5-0.7c0-1,0-2,0-2.9
		c0-0.5-0.2-1.3,0.7-1.3c1.1,0,2.4-0.4,3.2,0.7c0.4,0.6,0.2,1.3-0.5,1.7C329.6,25.6,329.4,25.8,329,25.6z"/>
	<path class="st6" d="M329,25.6c0.3-0.1,0.6-0.3,0.8-0.4c0.1,0.1,0.2,0.3,0.3,0.4c0.4,0.6,0.7,1.4,0.2,1.9c-0.5,0.5-0.8-0.1-0.8-0.7
		c0-0.2,0-0.5-0.1-0.7C329.3,26,329.1,25.8,329,25.6z"/>
	<path class="st4" d="M328.1,25c-0.3,0-0.8-0.1-0.8-0.8c0-0.7,0.4-0.9,1-0.8c0.5,0,1.1,0,1.2,0.7C329.6,24.9,329,25,328.1,25z"/>
</g>
</svg>
