<?xml version="1.0" encoding="utf-8"?>
<!-- Generator: Adobe Illustrator 16.0.0, SVG Export Plug-In . SVG Version: 6.00 Build 0)  -->
<!DOCTYPE svg PUBLIC "-//W3C//DTD SVG 1.1//EN" "http://www.w3.org/Graphics/SVG/1.1/DTD/svg11.dtd">
<svg version="1.1" id="Layer_1" xmlns="http://www.w3.org/2000/svg" xmlns:xlink="http://www.w3.org/1999/xlink" x="0px" y="0px"
	 width="26.189px" height="38.232px" viewBox="0 0 26.189 38.232" enable-background="new 0 0 26.189 38.232" xml:space="preserve">
<g>
	<path fill="#000000" d="M0,20.034h3.834V0.808c1.367-0.323,2.835-0.538,4.4-0.646C9.801,0.054,11.357,0,12.906,0
		c1.655,0,3.284,0.162,4.887,0.486c1.602,0.324,3.023,0.918,4.266,1.782c1.242,0.864,2.241,2.034,2.997,3.51
		c0.756,1.477,1.134,3.367,1.134,5.67c0,2.268-0.387,4.158-1.161,5.67c-0.774,1.512-1.8,2.736-3.077,3.672
		c-1.278,0.937-2.736,1.602-4.374,1.998c-1.639,0.396-3.304,0.612-4.995,0.648L8.315,23.49v3.834h8.964v3.348H8.315v7.561H3.834
		v-7.561H0v-3.348h3.834v-3.888H0V20.034z M13.014,3.78c-0.937,0-1.827,0.027-2.673,0.081C9.494,3.915,8.819,3.995,8.315,4.103
		V19.71h4.104c1.08,0,2.16-0.107,3.24-0.322c1.08-0.215,2.052-0.628,2.916-1.238c0.863-0.61,1.565-1.444,2.105-2.502
		s0.792-2.449,0.756-4.172c0.036-1.471-0.171-2.699-0.621-3.686c-0.45-0.986-1.062-1.775-1.836-2.368s-1.674-1.013-2.699-1.265
		C15.255,3.906,14.165,3.78,13.014,3.78z"/>
</g>
</svg>
